PathFileType	4	(X/Y/Z)	C:\Users\WrightLab\Desktop\Jo\P2_Trial37.trc
DataRate	CameraRate	NumFrames	NumMarkers	Units	OrigDataRate	OrigDataStartFrame	OrigNumFrames
100.00	100.00	       12	19	mm	100.00	212	       563
Frame#	Time	Headset_Front			Headset_Back			Headset_Left			Headset_Right			Left_Shoulder			Right_Shoulder			Sternum			C7			Left Elbow			Right Elbow			Left Wrist			Right Wrist			Left ASIS			Right ASIS			S2			Left Knee			Right Knee			Left Ankle			Right Ankle			
		X1	Y1	Z1	X2	Y2	Z2	X3	Y3	Z3	X4	Y4	Z4	X5	Y5	Z5	X6	Y6	Z6	X7	Y7	Z7	X8	Y8	Z8	X9	Y9	Z9	X10	Y10	Z10	X11	Y11	Z11	X12	Y12	Z12	X13	Y13	Z13	X14	Y14	Z14	X15	Y15	Z15	X16	Y16	Z16	X17	Y17	Z17	X18	Y18	Z18	X19	Y19	Z19	

212	2.110	-630.52484	1484.36511	-99.76782	-677.70203	1683.57910	-333.32098	-554.76648	1575.92786	-277.60504	-747.44727	1567.04150	-150.67949	-547.36963	1425.60217	-340.26495	-874.52954	1434.06042	-281.81583	-706.31305	1314.03516	-249.41679	-742.74127	1424.49731	-419.77798	-445.88638	1078.73364	-301.90964	-985.58209	1107.84192	-323.08426	-424.08359	836.74097	-281.41504	-1030.01721	860.00305	-277.30426	-650.94769	1022.87671	-219.34326	-782.33337	1009.91223	-204.20256	-727.30914	935.19415	-465.18381	-567.96454	463.29794	-227.69316	-962.08655	559.80945	-242.52567	-597.26245	225.66525	-417.94073	-915.40619	129.83467	-162.58540	
213	2.120				-676.71582	1684.43396	-324.20050	-554.18774	1575.52759	-267.95529	-746.27319	1567.81531	-141.74786	-547.43921	1425.99622	-333.52557	-873.22729	1434.85901	-270.42130	-704.76428	1314.73999	-240.67566	-744.24261	1425.57214	-410.11383	-444.67535	1079.29663	-300.03500	-985.44525	1108.86316	-307.51144	-421.59961	836.59253	-282.46158	-1030.12048	863.27832	-259.81235	-650.38715	1024.29456	-212.96791	-781.66864	1009.67346	-198.55437	-728.33759	937.19775	-458.39444	-564.02325	467.79376	-208.86955	-959.14453	559.46399	-236.58766	-599.78986	226.21451	-394.98111	-913.44965	124.25048	-172.61966	
214	2.130	-625.10217	1483.81396	-82.36555	-675.72729	1684.61597	-315.17691	-553.04327	1575.89673	-261.25272	-742.99359	1567.91138	-131.00203	-547.27594	1426.85352	-326.92908	-871.83972	1436.01404	-259.53064	-703.25861	1314.15149	-233.51901	-745.06348	1426.31421	-400.96255	-443.44287	1079.58838	-298.08939	-984.99316	1109.82483	-291.26453	-418.33447	837.12079	-282.27893	-1028.73035	864.72931	-240.49207	-648.92590	1025.64734	-206.99574	-780.52405	1009.85675	-191.18436	-727.92383	937.52753	-450.65381	-558.49750	474.01248	-192.73117	-956.54224	559.92749	-231.66980	-601.82227	226.31931	-372.95276	-912.93945	122.02243	-175.28970	
215	2.140	-623.57397	1483.60315	-74.63647	-674.40192	1685.40833	-306.28418	-551.65710	1575.64246	-252.48024	-740.79590	1568.45471	-122.48343	-546.96637	1427.01819	-319.81665	-870.88165	1436.54810	-248.16643	-701.74347	1315.67615	-223.41084	-745.32019	1426.98364	-391.43124	-442.01501	1079.96130	-295.90781	-985.24615	1110.55298	-275.90613	-414.87338	838.33191	-279.79852	-1025.07922	864.73718	-220.83533	-646.93060	1026.08850	-199.61768	-778.96515	1010.80310	-181.41884	-727.92694	938.18256	-442.99072	-552.29291	480.04059	-177.98863	-953.05304	558.88068	-226.49667	-605.54272	225.42000	-350.02020	-410.60828	844.27686	-260.23560	
216	2.150	-620.94122	1483.87280	-66.54694	-673.33112	1685.20349	-296.57248	-550.23767	1574.91748	-244.25706	-738.97406	1568.41760	-113.09663	-545.69366	1427.50610	-313.16641	-869.52783	1436.71790	-237.47069	-699.60663	1316.10474	-217.27455	-746.02313	1427.47546	-382.01990	-440.60120	1079.63049	-294.65399	-984.98822	1110.95215	-259.97061	-410.93271	837.84961	-282.30460	-1022.37897	865.14539	-200.93509	-646.64697	1025.20874	-192.40239	-777.41565	1010.97723	-172.58694	-727.56061	938.49969	-435.13763	-546.34503	485.60632	-161.34239	-949.99341	557.87366	-222.08055	-606.34186	224.20442	-327.84286	-408.66852	844.40820	-259.57132	
217	2.160	-618.11951	1483.34570	-58.31735	-671.99774	1685.49365	-287.75513	-548.50824	1575.30591	-237.23489	-736.33307	1567.92505	-103.48775	-545.59320	1427.87781	-306.87158	-867.14886	1436.47864	-226.18993	-697.98993	1314.79053	-206.75679	-746.43433	1427.52881	-372.55289	-439.11716	1079.91260	-292.65860	-984.39276	1111.24768	-244.02986	-409.77863	838.33850	-279.09839	-1020.59790	866.21112	-182.02821	-643.79547	1026.38855	-184.02718	-775.26031	1010.87640	-163.80122	-727.41742	939.22815	-428.40207	-540.40454	492.08661	-148.29453	-946.10852	555.15625	-217.09494	-607.59106	220.54941	-304.71423				
218	2.170	-615.43359	1481.23291	-49.58738	-670.73859	1685.27759	-279.02402	-547.10040	1574.06641	-229.09448	-733.66479	1568.09778	-94.28145	-544.72223	1427.85181	-299.91470	-865.28534	1436.38928	-216.09744	-695.53729	1315.36877	-199.47885	-746.34058	1427.70959	-363.77368	-437.39902	1079.39453	-290.23190	-983.66632	1111.27808	-227.80640	-403.08295	843.37567	-262.13287	-1017.51526	866.38141	-162.54715	-643.35895	1024.14746	-177.89731	-774.21643	1008.92603	-159.26909	-726.97388	939.49658	-420.10812	-537.23877	495.97528	-132.71846	-942.57635	552.02637	-212.03401	-606.95502	216.69392	-281.26349	-745.86182	367.63159	326.70792	
219	2.180	-613.80353	1481.49304	-40.41118	-669.32947	1684.94409	-270.15228	-545.34003	1574.59351	-220.53860	-731.31384	1567.27039	-84.68986	-543.80750	1428.22034	-293.44540	-863.04681	1435.77332	-205.14691				-745.77014	1427.56726	-354.19345	-435.79254	1079.22607	-288.01395	-983.24207	1111.29431	-211.96706	-401.45770	843.41522	-262.17902	-1015.98065	867.48175	-144.38744	-640.75073	1023.69019	-170.11531	-772.43671	1008.13776	-148.04588	-727.01056	939.73297	-412.73077	-532.89844	498.88565	-118.29404	-939.24591	549.49921	-207.59692	-606.03607	211.55096	-256.45508	-740.47205	373.18979	342.29117	
220	2.190	-610.10199	1480.50940	-34.07155				-543.20416	1574.39856	-213.57101	-728.49280	1567.23999	-75.64886	-542.28137	1428.05347	-286.74094	-860.72888	1435.28223	-195.06874	-691.59308	1314.88037	-182.23804	-745.42267	1427.35986	-344.75906	-434.19681	1079.03613	-286.22876	-982.35010	1111.48120	-196.60576	-398.31656	842.94635	-263.25323	-1012.65320	867.87830	-125.75931	-640.23218	1022.60669	-164.53273	-770.50018	1007.25623	-140.10225	-726.79047	939.47546	-404.55524	-528.52264	500.65051	-104.13766	-936.02441	547.59943	-203.90271	-599.44135	204.04076	-232.80159	-734.94281	377.58871	355.56534	
221	2.200	-606.20978	1480.91992	-24.27553	-665.82959	1684.57764	-251.69128	-541.60315	1574.00464	-204.98892	-726.08472	1565.76355	-66.40913	-541.25275	1426.86328	-278.43799	-858.35248	1434.36108	-184.41275	-688.95129	1314.03296	-173.89978	-744.40302	1427.32593	-335.91653	-432.15344	1078.82410	-283.89468	-981.39105	1111.33887	-181.38084	-396.36481	842.51337	-262.20529	-1010.73401	868.68732	-107.16287	-635.97858	1021.44922	-154.70183	-769.21466	1006.15167	-130.44771	-726.97314	940.22589	-397.31076	-521.62445	501.44037	-93.82441	-933.15631	547.07715	-201.64696	-591.74982	196.83890	-208.68126	-729.33844	380.46265	368.87589	
222	2.210	-603.71265	1479.54651	-15.81752	-664.02039	1683.93408	-242.74808	-539.21521	1573.47534	-195.89650	-723.92554	1566.05640	-58.33931	-539.34387	1427.67065	-272.68536	-855.98285	1433.57397	-174.10449	-686.20514	1313.56104	-166.27625	-744.44720	1427.57593	-327.23102	-430.13535	1078.01624	-280.69504	-980.32312	1111.47278	-167.11108	-393.93805	842.04352	-262.48834	-1007.65472	869.22675	-89.26063	-636.48718	1020.12683	-148.03450	-766.79779	1004.79651	-120.49735	-727.24103	940.08130	-388.47754	-515.72485	499.42947	-82.54732	-930.34436	546.63055	-199.82367	-583.00653	189.19360	-185.70883	-918.78485	106.67186	-197.60725	
223	2.220	-601.15906	1479.10730	-7.41510	-661.85236	1683.86450	-233.68990	-536.57166	1573.78101	-185.84441	-720.26184	1564.38074	-48.32623	-537.10925	1427.27905	-265.69989	-852.68140	1432.55945	-163.87991	-683.30176	1312.04077	-159.16980	-742.44104	1427.25122	-317.37854	-428.18494	1077.78601	-278.16074	-978.63654	1111.30029	-151.90923	-390.98892	840.96021	-257.55954	-1003.86157	870.01611	-70.70692	-632.53516	1019.17023	-138.50774	-764.55280	1004.01483	-113.18147	-726.88623	940.32904	-380.66220	-507.93210	497.21158	-72.20604	-927.84210	545.84613	-198.86670	-573.44403	181.66336	-163.33806	-920.80634	106.91220	-198.24783	
